<svg xmlns="http://www.w3.org/2000/svg" version="1.1" xmlns:xlink="http://www.w3.org/1999/xlink" xmlns:svgjs="http://svgjs.dev/svgjs" width="2000" height="1999" viewBox="0 0 2000 1999"><g transform="matrix(1,0,0,1,-0.431486880466764,-0.4312711370263287)"><svg viewBox="0 0 343 343" data-background-color="#290600" preserveAspectRatio="xMidYMid meet" height="1999" width="2000" xmlns="http://www.w3.org/2000/svg" xmlns:xlink="http://www.w3.org/1999/xlink"><g id="tight-bounds" transform="matrix(1,0,0,1,0.0740000000000407,0.07400000000001228)"><svg viewBox="0 0 342.85155851775386 342.85155851775386" height="342.85155851775386" width="342.85155851775386"><g><svg></svg></g><g><svg viewBox="0 0 342.85155851775386 342.85155851775386" height="342.85155851775386" width="342.85155851775386"><g><path d="M0 171.426c0-94.676 76.75-171.426 171.426-171.426 94.676 0 171.426 76.75 171.426 171.426 0 94.676-76.75 171.426-171.426 171.426-94.676 0-171.426-76.75-171.426-171.426zM171.426 340.204c93.214 0 168.778-75.565 168.778-168.778 0-93.214-75.565-168.778-168.778-168.779-93.214 0-168.778 75.565-168.779 168.779 0 93.214 75.565 168.778 168.779 168.778z" data-fill-palette-color="tertiary" fill="#ed1703" stroke="transparent"></path><ellipse rx="164.56874808852186" ry="164.56874808852186" cx="171.42577925887693" cy="171.42577925887693" fill="#ed1703" stroke="transparent" stroke-width="0" fill-opacity="1" data-fill-palette-color="tertiary"></ellipse></g><g transform="matrix(1,0,0,1,64.84655864529837,103.13817738172384)"><svg viewBox="0 0 213.1584412271571 136.5752037543062" height="136.5752037543062" width="213.1584412271571"><g><svg viewBox="0 0 213.1584412271571 136.5752037543062" height="136.5752037543062" width="213.1584412271571"><g><svg viewBox="0 0 213.1584412271571 136.5752037543062" height="136.5752037543062" width="213.1584412271571"><g transform="matrix(1,0,0,1,0,82.14820275713909)"><svg viewBox="0 0 213.1584412271571 54.4270009971671" height="54.4270009971671" width="213.1584412271571"><g id="textblocktransform"><svg viewBox="0 0 213.1584412271571 54.4270009971671" height="54.4270009971671" width="213.1584412271571" id="textblock"><g><svg viewBox="0 0 213.1584412271571 29.35532362058896" height="29.35532362058896" width="213.1584412271571"><g transform="matrix(1,0,0,1,0,0)"><svg width="213.1584412271571" viewBox="1.61 -32.64 238.76999999999998 32.88" height="29.35532362058896" data-palette-color="#5e1914"><path d="M10.6 0.24Q8.2 0.24 6.14-0.28 4.08-0.81 2.84-1.55 1.61-2.29 1.61-2.91L1.61-2.91Q1.61-3.25 1.89-3.81 2.17-4.37 2.54-4.81 2.91-5.25 3.13-5.25L3.13-5.25Q3.32-5.25 3.98-4.86L3.98-4.86Q5.49-4.08 6.98-3.56 8.47-3.05 10.6-3.05L10.6-3.05Q12.26-3.05 13.55-3.69 14.84-4.32 15.56-5.48 16.28-6.64 16.28-8.15L16.28-8.15Q16.28-9.77 15.42-10.83 14.55-11.89 13.32-12.51 12.08-13.13 9.74-14.06L9.74-14.06Q7.2-15.04 5.73-15.88 4.25-16.72 3.21-18.33 2.17-19.95 2.17-22.61L2.17-22.61Q2.17-24.93 3.37-26.77 4.57-28.61 6.76-29.64 8.96-30.66 11.82-30.66L11.82-30.66Q13.11-30.66 14.77-30.31 16.43-29.96 17.61-29.35 18.8-28.74 18.8-28L18.8-28Q18.8-27.69 18.54-27.14 18.29-26.59 17.94-26.15 17.6-25.71 17.41-25.71L17.41-25.71Q17.19-25.71 16.53-26.07L16.53-26.07Q15.43-26.66 14.36-27.01 13.28-27.37 11.74-27.37L11.74-27.37Q9.23-27.37 7.68-26.07 6.13-24.78 6.13-22.46L6.13-22.46Q6.13-21.07 6.81-20.17 7.5-19.26 8.54-18.73 9.59-18.19 11.47-17.48L11.47-17.48Q11.6-17.46 12.04-17.29L12.04-17.29Q14.62-16.28 16.27-15.34 17.92-14.4 19.08-12.65 20.24-10.89 20.24-8.15L20.24-8.15Q20.24-5.59 19.06-3.69 17.87-1.78 15.69-0.77 13.5 0.24 10.6 0.24L10.6 0.24ZM34.15 0.24Q29.25 0.24 26.67-2.7 24.09-5.64 24.09-11.25L24.09-11.25Q24.09-16.87 26.71-19.91 29.32-22.95 34.15-22.95L34.15-22.95Q38.94-22.95 41.48-19.93 44.02-16.92 44.02-11.25L44.02-11.25Q44.02-5.62 41.51-2.69 39.01 0.24 34.15 0.24L34.15 0.24ZM34.03-2.88Q37.2-2.88 38.72-4.94 40.23-7.01 40.23-11.33L40.23-11.33Q40.23-15.67 38.72-17.75 37.2-19.82 34.03-19.82L34.03-19.82Q30.88-19.82 29.39-17.76 27.9-15.7 27.9-11.33L27.9-11.33Q27.9-6.98 29.38-4.93 30.86-2.88 34.03-2.88L34.03-2.88ZM56.73 0.24Q53.41 0.24 51.53-1.62 49.65-3.49 49.65-6.79L49.65-6.79 49.65-21.83Q49.65-22.78 51.41-22.78L51.41-22.78 51.58-22.78Q53.32-22.78 53.32-21.83L53.32-21.83 53.32-7.13Q53.32-5.13 54.47-4.02 55.63-2.91 57.73-2.91L57.73-2.91Q59.2-2.91 60.66-3.72 62.13-4.54 63.2-5.96L63.2-5.96 63.2-21.83Q63.2-22.78 64.94-22.78L64.94-22.78 65.11-22.78Q66.87-22.78 66.87-21.83L66.87-21.83 66.87-6.42Q66.87-3.59 67.11-2.33 67.35-1.07 67.35-0.95L67.35-0.95Q67.35-0.42 66.55-0.18 65.74 0.05 65.03 0.05L65.03 0.05Q64.42 0.05 64.13-0.65 63.84-1.34 63.7-2.08 63.57-2.81 63.52-3L63.52-3Q62.15-1.46 60.36-0.61 58.56 0.24 56.73 0.24L56.73 0.24ZM76.07 0.07Q75.14 0.07 74.72-0.16 74.31-0.39 74.31-0.88L74.31-0.88 74.31-16.11Q74.31-18.95 74.04-20.2 73.77-21.46 73.77-21.58L73.77-21.58Q73.77-22.12 74.59-22.35 75.41-22.58 76.14-22.58L76.14-22.58Q76.75-22.58 77.04-21.92 77.34-21.26 77.47-20.58 77.6-19.9 77.65-19.7L77.65-19.7Q79.02-21.24 80.82-22.09 82.61-22.95 84.44-22.95L84.44-22.95Q87.76-22.95 89.63-21.08 91.5-19.21 91.5-15.94L91.5-15.94 91.5-0.88Q91.5-0.39 91.08-0.16 90.67 0.07 89.76 0.07L89.76 0.07 89.57 0.07Q88.69 0.07 88.27-0.16 87.86-0.39 87.86-0.88L87.86-0.88 87.86-15.58Q87.86-17.58 86.7-18.69 85.54-19.8 83.44-19.8L83.44-19.8Q81.97-19.8 80.5-18.98 79.02-18.16 77.95-16.75L77.95-16.75 77.95-0.88Q77.95-0.39 77.53-0.16 77.12 0.07 76.24 0.07L76.24 0.07 76.07 0.07ZM105.41 0.24Q102.87 0.24 100.97-1.23 99.06-2.71 98.02-5.35 96.99-7.98 96.99-11.33L96.99-11.33Q96.99-15.01 98.1-17.64 99.21-20.26 101.21-21.61 103.21-22.95 105.82-22.95L105.82-22.95Q107.7-22.95 109.16-22.39 110.61-21.83 112.03-20.75L112.03-20.75 112.03-31.69Q112.03-32.64 113.74-32.64L113.74-32.64 113.93-32.64Q115.66-32.64 115.66-31.69L115.66-31.69 115.66-6.42Q115.66-3.59 115.93-2.33 116.2-1.07 116.2-0.95L116.2-0.95Q116.2-0.42 115.38-0.18 114.57 0.05 113.86 0.05L113.86 0.05Q113.37 0.05 113.08-0.42 112.78-0.88 112.67-1.35 112.56-1.83 112.32-3L112.32-3Q109.22 0.24 105.41 0.24L105.41 0.24ZM106.17-2.91Q107.61-2.91 109.16-3.69 110.71-4.47 112.03-5.91L112.03-5.91 112.03-17.8Q109.68-19.75 106.68-19.75L106.68-19.75Q103.77-19.68 102.3-17.63 100.82-15.58 100.82-11.67L100.82-11.67Q100.82-7.47 102.2-5.19 103.58-2.91 106.17-2.91L106.17-2.91ZM140.29 0.24Q137.9 0.24 135.84-0.28 133.77-0.81 132.54-1.55 131.31-2.29 131.31-2.91L131.31-2.91Q131.31-3.25 131.59-3.81 131.87-4.37 132.24-4.81 132.6-5.25 132.82-5.25L132.82-5.25Q133.02-5.25 133.68-4.86L133.68-4.86Q135.19-4.08 136.68-3.56 138.17-3.05 140.29-3.05L140.29-3.05Q141.95-3.05 143.25-3.69 144.54-4.32 145.26-5.48 145.98-6.64 145.98-8.15L145.98-8.15Q145.98-9.77 145.11-10.83 144.25-11.89 143.01-12.51 141.78-13.13 139.44-14.06L139.44-14.06Q136.9-15.04 135.42-15.88 133.94-16.72 132.91-18.33 131.87-19.95 131.87-22.61L131.87-22.61Q131.87-24.93 133.07-26.77 134.26-28.61 136.46-29.64 138.66-30.66 141.51-30.66L141.51-30.66Q142.81-30.66 144.47-30.31 146.13-29.96 147.31-29.35 148.5-28.74 148.5-28L148.5-28Q148.5-27.69 148.24-27.14 147.98-26.59 147.64-26.15 147.3-25.71 147.1-25.71L147.1-25.71Q146.88-25.71 146.23-26.07L146.23-26.07Q145.13-26.66 144.05-27.01 142.98-27.37 141.44-27.37L141.44-27.37Q138.93-27.37 137.38-26.07 135.82-24.78 135.82-22.46L135.82-22.46Q135.82-21.07 136.51-20.17 137.19-19.26 138.24-18.73 139.29-18.19 141.17-17.48L141.17-17.48Q141.29-17.46 141.73-17.29L141.73-17.29Q144.32-16.28 145.97-15.34 147.62-14.4 148.78-12.65 149.94-10.89 149.94-8.15L149.94-8.15Q149.94-5.59 148.75-3.69 147.57-1.78 145.38-0.77 143.2 0.24 140.29 0.24L140.29 0.24ZM161.65 0.24Q159.48 0.24 157.77-1.07 156.06-2.39 156.06-5.74L156.06-5.74 156.06-19.58 153.89-19.58Q153.42-19.58 153.22-19.89 153.01-20.19 153.01-20.87L153.01-20.87 153.01-21.41Q153.01-22.09 153.22-22.4 153.42-22.71 153.89-22.71L153.89-22.71 156.06-22.71 156.57-27.25Q156.62-28.2 157.97-28.2L157.97-28.2 158.38-28.2Q159.06-28.2 159.38-27.97 159.7-27.73 159.7-27.25L159.7-27.25 159.7-22.71 163.34-22.71Q163.8-22.71 164.01-22.4 164.22-22.09 164.22-21.41L164.22-21.41 164.22-20.87Q164.22-20.19 164.01-19.89 163.8-19.58 163.34-19.58L163.34-19.58 159.7-19.58 159.7-6.08Q159.7-4.3 160.32-3.59 160.94-2.88 162.02-2.88L162.02-2.88Q162.85-2.88 163.3-2.98 163.75-3.08 163.9-3.08L163.9-3.08Q164.29-3.08 164.55-2.29 164.8-1.51 164.8-1.05L164.8-1.05Q164.8 0.24 161.65 0.24L161.65 0.24ZM178.72 0.24Q173.81 0.24 171.23-2.7 168.66-5.64 168.66-11.25L168.66-11.25Q168.66-16.87 171.27-19.91 173.88-22.95 178.72-22.95L178.72-22.95Q183.5-22.95 186.04-19.93 188.58-16.92 188.58-11.25L188.58-11.25Q188.58-5.62 186.08-2.69 183.57 0.24 178.72 0.24L178.72 0.24ZM178.59-2.88Q181.77-2.88 183.28-4.94 184.79-7.01 184.79-11.33L184.79-11.33Q184.79-15.67 183.28-17.75 181.77-19.82 178.59-19.82L178.59-19.82Q175.44-19.82 173.95-17.76 172.47-15.7 172.47-11.33L172.47-11.33Q172.47-6.98 173.94-4.93 175.42-2.88 178.59-2.88L178.59-2.88ZM196.63 0.07Q195.71 0.07 195.29-0.16 194.87-0.39 194.87-0.88L194.87-0.88 194.87-16.11Q194.87-18.95 194.61-20.2 194.34-21.46 194.34-21.58L194.34-21.58Q194.34-22.12 195.16-22.35 195.97-22.58 196.71-22.58L196.71-22.58Q197.29-22.58 197.58-21.96 197.88-21.34 198.1-20.21L198.1-20.21 198.22-19.7Q200.54-22.95 203.25-22.95L203.25-22.95Q204.49-22.95 205.13-22.5 205.76-22.05 205.76-21.29L205.76-21.29Q205.76-20.56 205.51-19.74 205.25-18.92 204.91-18.92L204.91-18.92Q204.74-18.92 204.3-19.07L204.3-19.07Q203.91-19.24 203.52-19.32 203.13-19.41 202.52-19.41L202.52-19.41Q201.52-19.41 200.62-18.82 199.73-18.24 199.12-17.53 198.51-16.82 198.51-16.75L198.51-16.75 198.51-0.88Q198.51-0.39 198.1-0.16 197.68 0.07 196.8 0.07L196.8 0.07 196.63 0.07ZM233.57-22.95Q236.28-22.95 238.33-21.41 240.38-19.87 240.38-15.94L240.38-15.94 240.38-0.88Q240.38-0.39 239.97-0.16 239.55 0.07 238.65 0.07L238.65 0.07 238.5 0.07Q237.57 0.07 237.16-0.16 236.74-0.39 236.74-0.88L236.74-0.88 236.74-15.58Q236.74-17.55 235.68-18.68 234.62-19.8 232.57-19.8L232.57-19.8Q230.86-19.8 229.48-18.81 228.1-17.82 227.25-16.75L227.25-16.75Q227.29-16.16 227.29-15.87L227.29-15.87 227.29-0.88Q227.29 0.07 225.54 0.07L225.54 0.07 225.37 0.07Q223.63 0.07 223.63-0.88L223.63-0.88 223.63-15.58Q223.63-17.55 222.57-18.68 221.51-19.8 219.46-19.8L219.46-19.8Q218.04-19.8 216.87-19.13 215.7-18.46 214.93-17.68 214.16-16.89 214.16-16.8L214.16-16.8 214.16-0.88Q214.16-0.39 213.76-0.16 213.35 0.07 212.45 0.07L212.45 0.07 212.26 0.07Q211.35 0.07 210.95-0.16 210.55-0.39 210.55-0.88L210.55-0.88 210.55-16.11Q210.55-18.95 210.28-20.2 210.01-21.46 210.01-21.58L210.01-21.58Q210.01-22.12 210.83-22.35 211.64-22.58 212.35-22.58L212.35-22.58Q212.96-22.58 213.26-21.92 213.55-21.26 213.68-20.58 213.82-19.9 213.87-19.7L213.87-19.7Q215.06-21.09 216.8-22.02 218.53-22.95 220.46-22.95L220.46-22.95Q222.44-22.95 224.14-22.16 225.85-21.36 226.66-19.36L226.66-19.36Q228-20.95 229.81-21.95 231.62-22.95 233.57-22.95L233.57-22.95Z" opacity="1" transform="matrix(1,0,0,1,0,0)" fill="#5e1914" class="wordmark-text-0" data-fill-palette-color="quaternary" id="text-0"></path></svg></g></svg></g><g transform="matrix(1,0,0,1,0,36.28541099964312)"><svg viewBox="0 0 213.1584412271571 18.141589997523976" height="18.141589997523976" width="213.1584412271571"><g transform="matrix(1,0,0,1,0,0)"><svg width="213.1584412271571" viewBox="3 -37.5 569.27 48.45" height="18.141589997523976" data-palette-color="#5e1914"><path d="M8.55-37.5L18.3-37.5Q21.35-37.5 22.73-35.83 24.1-34.15 24.1-30.85L24.1-30.85 24.1-6.8Q24.1-3.2 22.9-1.6 21.7 0 18.55 0L18.55 0 15.55 0 15.55 3 11.55 3 11.55 0 8.95 0Q4.15 0 3.3-3.6L3.3-3.6Q3-4.7 3-6.05L3-6.05 3-30.85Q3-34.2 4.1-35.7L4.1-35.7Q5.35-37.5 8.55-37.5L8.55-37.5ZM11.55-3.4L11.55-5.9 15.55-5.9 15.55-3.4 20.1-3.4 20.1-34.1 7-34.1 7-3.4 11.55-3.4ZM60.67 0.1L60.67 0.1Q56.77 0.1 56.77-3.75L56.77-3.75 56.77-21.65 53.57-21.65 53.57-25.05 60.82-25.05 60.82-3.4 70.77-9.65 70.77-21.65 68.32-21.65 68.32-25.05 74.82-25.05 74.82-3.4 77.97-3.4 77.97 0 70.77 0 70.77-5.6 62.47-0.4Q61.67 0.1 60.67 0.1ZM123.94-3.4L127.09-3.4 127.09 0 109.69 0Q107.14 0 106.24-1L106.24-1Q105.44-1.9 105.44-4.4L105.44-4.4 105.44-6.25Q105.44-8.05 105.89-8.7L105.89-8.7Q106.54-9.65 108.84-11.05L108.84-11.05 119.84-17.9 119.84-21.6 110.04-21.6 110.04-18.7 106.84-18.7 106.84-25 119.34-25Q121.89-25 122.91-23.9 123.94-22.8 123.94-20.7L123.94-20.7 123.94-3.4ZM119.84-3.4L119.84-13.9 109.44-7.4 109.44-3.4 119.84-3.4ZM163.31-37.5L163.31-3.4 166.56-3.4 166.56 0 156.06 0 156.06-3.4 159.21-3.4 159.21-34.1 156.06-34.1 156.06-37.5 163.31-37.5ZM203.27-25L203.27-3.4 206.52-3.4 206.52 0 196.02 0 196.02-3.4 199.17-3.4 199.17-21.6 196.02-21.6 196.02-25 203.27-25ZM201.22-34.2Q202.27-34.2 203-33.43 203.72-32.65 203.72-31.58 203.72-30.5 203-29.78 202.27-29.05 201.2-29.05 200.12-29.05 199.4-29.78 198.67-30.5 198.67-31.58 198.67-32.65 199.42-33.43 200.17-34.2 201.22-34.2ZM238.69-34.1L242.59-34.1 242.59-25 246.64-25 246.64-21.4 242.59-21.4 242.59-3.4 247.34-3.4 247.34 0 243.14 0Q240.89 0 239.79-1.18 238.69-2.35 238.69-5.2L238.69-5.2 238.69-21.4 234.99-21.4 234.99-25 238.69-25 238.69-34.1ZM290.06-25L296.56-25 296.56 6.65Q296.56 8.75 295.54 9.85 294.51 10.95 291.96 10.95L291.96 10.95 280.41 10.95 280.41 4.15 283.81 4.15 283.81 7.5 292.46 7.5 292.46-5.65 283.66-0.2Q282.51 0.5 281.36 0.5L281.36 0.5Q280.21 0.5 279.36-0.28 278.51-1.05 278.51-2.75L278.51-2.75 278.51-21.6 275.31-21.6 275.31-25 282.56-25 282.56-3.45 292.51-9.7 292.51-21.6 290.06-21.6 290.06-25ZM374.75-19.45L383.25-24.8Q384.35-25.5 385.82-25.5 387.3-25.5 388.32-24.4 389.35-23.3 389.35-21.2L389.35-21.2 389.35-4.4Q389.35-2.35 388.7-1.5L388.7-1.5Q387.5 0 385.05 0L385.05 0 367.5 0 367.5-3.4 370.65-3.4 370.65-34.1 367.5-34.1 367.5-37.5 374.75-37.5 374.75-19.45ZM385.35-3.4L385.35-22.1 374.75-15.45 374.75-3.4 385.35-3.4ZM418.82-3.65L418.82-20.1Q418.82-25.05 423.97-25.05L423.97-25.05 432.42-25.05Q434.87-25.05 435.97-24.1 437.07-23.15 437.07-20.6L437.07-20.6 437.07-15.95 422.82-6.95 422.82-3.4 433.12-3.4 433.12-6.3 437.07-6.3 437.07-3.65Q437.07-2.15 436.14-1.07 435.22 0 433.07 0L433.07 0 422.82 0Q420.67 0 419.74-1.07 418.82-2.15 418.82-3.65L418.82-3.65ZM422.82-21.6L422.82-11 433.07-17.45 433.07-21.6 422.82-21.6ZM482.89-3.4L486.04-3.4 486.04 0 468.64 0Q466.09 0 465.19-1L465.19-1Q464.39-1.9 464.39-4.4L464.39-4.4 464.39-6.25Q464.39-8.05 464.84-8.7L464.84-8.7Q465.49-9.65 467.79-11.05L467.79-11.05 478.79-17.9 478.79-21.6 468.99-21.6 468.99-18.7 465.79-18.7 465.79-25 478.29-25Q480.84-25 481.86-23.9 482.89-22.8 482.89-20.7L482.89-20.7 482.89-3.4ZM478.79-3.4L478.79-13.9 468.39-7.4 468.39-3.4 478.79-3.4ZM518.2-34.1L522.1-34.1 522.1-25 526.15-25 526.15-21.4 522.1-21.4 522.1-3.4 526.85-3.4 526.85 0 522.65 0Q520.4 0 519.3-1.18 518.2-2.35 518.2-5.2L518.2-5.2 518.2-21.4 514.5-21.4 514.5-25 518.2-25 518.2-34.1ZM572.27-7.5L572.27-4.4Q572.27 0 567.97 0L567.97 0 555.87 0 555.87-7.55 559.27-7.55 559.27-3.4 568.27-3.4 568.27-7.55 560.07-12.7Q558.82-13.5 557.92-14 557.02-14.5 556.42-15L556.42-15Q555.32-16 555.32-17.7L555.32-17.7 555.32-20.55Q555.32-22.65 556.02-23.45L556.02-23.45Q557.37-25 560.02-25L560.02-25 571.67-25 571.67-17.5 568.27-17.5 568.27-21.6 559.27-21.6 559.27-17.4 567.77-12.1Q568.82-11.45 569.65-10.98 570.47-10.5 571.02-10L571.02-10Q572.27-8.95 572.27-7.5L572.27-7.5Z" opacity="1" transform="matrix(1,0,0,1,0,0)" fill="#5e1914" class="slogan-text-1" data-fill-palette-color="quaternary" id="text-1"></path></svg></g></svg></g></svg></g></svg></g><g transform="matrix(1,0,0,1,42.180149228231855,0)"><svg viewBox="0 0 128.7981427706934 75.21811537808493" height="75.21811537808493" width="128.7981427706934"><g><svg xmlns="http://www.w3.org/2000/svg" xmlns:xlink="http://www.w3.org/1999/xlink" version="1.1" x="0" y="0" viewBox="0 20.600000000000005 100 58.39999999999999" enable-background="new 0 0 100 100" xml:space="preserve" height="75.21811537808493" width="128.7981427706934" class="icon-icon-0" data-fill-palette-color="quaternary" id="icon-0"><path d="M80.909 43.213c-1.412 0-2.786 0.168-4.103 0.481 0.045-0.564 0.068-1.135 0.068-1.711 0-11.809-9.573-21.383-21.383-21.383-8.698 0-16.183 5.194-19.523 12.649-3.499-1.975-7.538-3.104-11.842-3.104C10.802 30.146 0 40.75 0 54.074 0 67.4 10.802 79 24.127 79c0.681 0 2.021 0 2.021 0s43.337 0 55.717 0S100 69.752 100 60.607C100 50.89 90.626 43.213 80.909 43.213zM42.981 70.531L47.233 54h-9.979l19.772-21.648L52.102 48h10.645L42.981 70.531z" fill="#5e1914" data-fill-palette-color="quaternary"></path></svg></g></svg></g><g></g></svg></g></svg></g></svg></g></svg></g><defs></defs></svg><rect width="342.85155851775386" height="342.85155851775386" fill="none" stroke="none" visibility="hidden"></rect></g></svg></g></svg>